<?xml version="1.0" standalone="no"?>
<!DOCTYPE svg PUBLIC "-//W3C//DTD SVG 1.1//EN" "http://www.w3.org/Graphics/SVG/1.1/DTD/svg11.dtd" >
<svg xmlns="http://www.w3.org/2000/svg">
<metadata>Generated by IcoMoon</metadata>
<defs>
<font id="app" horiz-adv-x="512">
<font-face units-per-em="512" ascent="480" descent="-32" />
<missing-glyph horiz-adv-x="512" />
<glyph unicode="&#x20;" d="" horiz-adv-x="256" />
<glyph unicode="&#xe600;" d="M310.95 242.875c-3.925 0-7.13-3.166-7.13-7.155 0-3.917 3.205-7.054 7.13-7.054 3.944 0 7.134 3.136 7.134 7.053 0 3.992-3.187 7.155-7.134 7.155zM310.808 192.546c-3.918 0-7.142-3.187-7.142-7.152 0-3.896 3.224-7.072 7.142-7.072 3.925 0 7.123 3.176 7.123 7.072 0 3.966-3.2 7.152-7.123 7.152zM243.296 235.722c0-3.917 3.197-7.054 7.112-7.054 3.944 0 7.114 3.136 7.114 7.053 0 3.989-3.168 7.155-7.114 7.155-3.912-0.002-7.112-3.166-7.112-7.155zM250.408 192.546c-3.915 0-7.112-3.187-7.112-7.152 0-3.896 3.197-7.072 7.112-7.072 3.944 0 7.114 3.176 7.114 7.072 0 3.966-3.168 7.152-7.114 7.152zM243.296 127.010c0-3.952 3.197-7.158 7.112-7.158 3.944 0 7.114 3.202 7.114 7.158 0 3.933-3.168 7.13-7.114 7.13-3.912 0-7.112-3.197-7.112-7.13zM310.95 134.142c-3.925 0-7.13-3.197-7.13-7.13 0-3.952 3.205-7.158 7.13-7.158 3.944 0 7.134 3.202 7.134 7.158 0 3.933-3.187 7.13-7.134 7.13zM358.472 235.645c0-3.976 3.205-7.171 7.123-7.171 3.933 0 7.101 3.195 7.101 7.171 0 3.915-3.168 7.075-7.101 7.075-3.918 0.002-7.123-3.16-7.123-7.075zM365.438 192.421c-3.925 0-7.13-3.208-7.13-7.11 0-3.968 3.205-7.168 7.13-7.168 3.936 0 7.094 3.197 7.094 7.168 0 3.901-3.158 7.11-7.094 7.11zM358.472 126.912c0-3.99 3.205-7.152 7.123-7.152 3.933 0 7.101 3.163 7.101 7.152 0 3.918-3.168 7.104-7.101 7.104-3.918 0-7.123-3.187-7.123-7.104zM193.88 235.722c0-3.95 3.179-7.090 7.114-7.090 3.952 0 7.112 3.142 7.112 7.090 0 3.939-3.16 7.090-7.112 7.090-3.936 0-7.114-3.155-7.114-7.090zM139.101 235.722c0-3.95 3.226-7.090 7.144-7.090 3.97 0 7.142 3.142 7.142 7.090 0 3.939-3.168 7.090-7.142 7.090-3.917 0-7.144-3.155-7.144-7.090zM146.245 192.594c-3.917 0-7.144-3.187-7.144-7.142 0-3.928 3.226-7.13 7.144-7.13 3.97 0 7.142 3.202 7.142 7.13 0 3.952-3.171 7.142-7.142 7.142zM200.848 192.594c-3.944 0-7.144-3.187-7.144-7.142 0-3.928 3.197-7.13 7.144-7.13 3.963 0 7.104 3.202 7.104 7.13 0 3.952-3.138 7.142-7.104 7.142zM146.245 134.197c-3.917 0-7.144-3.256-7.144-7.158 0-3.947 3.226-7.152 7.144-7.152 3.97 0 7.142 3.202 7.142 7.152 0 3.904-3.171 7.158-7.142 7.158zM200.994 134.197c-3.936 0-7.114-3.256-7.114-7.158 0-3.947 3.179-7.152 7.114-7.152 3.952 0 7.112 3.202 7.112 7.152 0 3.904-3.16 7.158-7.112 7.158zM161.506 284.864v-39.694h30.181v39.694h-30.181zM161.506 225.326v-29.768h30.181v29.768h-30.181zM161.506 175.714v-39.694h30.181v39.693h-30.181zM211.536 284.864v-39.694h29.768v39.694h-29.768zM211.536 225.326v-29.768h29.768v29.768h-29.768zM211.536 175.714v-39.694h29.768v39.693h-29.768zM261.152 284.864v-39.694h39.694v39.694h-39.693zM261.152 225.326v-29.768h39.694v29.768h-39.693zM261.152 175.714v-39.694h39.694v39.693h-39.693zM320.688 284.864v-39.694h29.768v39.694h-29.768zM320.688 225.326v-29.768h29.768v29.768h-29.768zM320.688 175.714v-39.694h29.768v39.693h-29.768zM139.101 294.149c0-3.954 3.226-7.136 7.144-7.136 3.97 0 7.142 3.178 7.142 7.136 0 3.918-3.168 7.13-7.142 7.13-3.917-0.002-7.144-3.216-7.144-7.13zM193.707 294.149c0-3.954 3.197-7.136 7.144-7.136 3.963 0 7.104 3.178 7.104 7.136 0 3.918-3.142 7.13-7.104 7.13-3.946-0.002-7.144-3.216-7.144-7.13zM248.63 294.184c0-3.954 3.197-7.154 7.112-7.154 3.944 0 7.114 3.197 7.114 7.154 0 3.934-3.168 7.136-7.114 7.136-3.912 0-7.112-3.202-7.112-7.136zM303.208 294.184c0-3.954 3.224-7.154 7.142-7.154 3.925 0 7.123 3.197 7.123 7.154 0 3.934-3.197 7.136-7.123 7.136-3.918 0-7.142-3.202-7.142-7.136zM365.438 301.166c-3.925 0-7.13-3.2-7.13-7.125 0-3.944 3.205-7.118 7.13-7.118 3.936 0 7.094 3.173 7.094 7.118 0 3.923-3.158 7.125-7.094 7.125zM151.302 304.712h209.078v7.925c0 0-93.413 42.541-209.941-1.104l0.864-6.822zM210.238 394.016c0 0-10.718 6.821-16.822-3.606 0 0-2.984-3.286-4.341-17.056 0 0 10.733-3.334 8.053-17.987 0 0 27.355-21.88 42.336 1.814 0 0 8.75 8.712 10.429 39.738 0 0-12.93 4.214-23.704-13.918 0 0-6.707-13.12-8.742 0.136 0 0-0.64 29.704-5.022 36.438 0 0-1.994 4.205 2.52 4.698 0 0 1.667-0.666 2.888-3.312 1.142-2.722 9.042-16.696 29.195-11.774 0 0 6.162 22.464-27.899 28.374 0 0-1.144 5.698 4.245 7.387 0 0 9.554-4.195 27.181-4.371 17.608-0.184 25.013 0.51 35.949 3.896 0 0 6.558 1.454 5.534-7.25 0 0-32.232-3.538-27.56-28.226 0 0 19.981-5.389 29.267 12.432 0 0 1.296 3.014 3.827 2.846 0 0 4.005-1.517 0.349-6.578 0 0-4.173-14.398-4.382-34.872 0 0 1.264-3.675-1.498-4.886 0 0-2.675-2.877-5.709 3.536 0 0-9.872 19.128-24.68 15.405 0 0 0.442-33.389 15.25-45.621 0 0 12.589-14.125 37.136 4.166 0 0-2.861 13.238 8.070 17.656 0 0-0.493 32.221-21.339 19.613 0 0 2.666 37.608 26.894 2.026 0 0 1.656 31.582 20.272 36.93 0 0 8.587-15.11-3.334-42.832 0 0 41.998 22.714 21.813-17.31 0 0-12.587 22.552-26.502-2.848 0 0 6.717-12.072-2.384-15.582 0 0 0-33.621 37.635-13.432 0 0 10.264 3.026 21.010 17.165 0 0 4.496 3.131 0.813 8.702-3.723 5.534-10.232 1.707-10.89 1.144-0.67-0.493-10.272-6.501-12.603-7.877 0 0-7.205-2.056-2.197 4.712 0 0 1.368 1.365 2.717 2.984 2.914 3.555 6.462 12.13 5.685 32.954 0 0-0.339 3.866 2.346 3.866 0 0 2.899 0.512 3.384-2.696 0.474-3.176 1.328-26.181 20.805-26.88 0 0 16.296 15.795-2.346 36.96 0 0-4.224 2.691-2.365 6.062 0 0 1.666 3.16 6.067 0.816l27.325-15.184-54.694-94.469v-281.040h-13.12l-23.208 59.536h6.56v29.77h-29.768v-29.77h12.154l-21.661-53.661-22.642 53.661h12.307v29.77h-39.693v-29.77h16.784l-22.696-58.918-22.674 48.99h8.738v39.699h-29.768v-29.771h10.486l-22.21-53.389-22.674 53.389h14.554v29.77h-30.184v-29.77h5.064l-23.16-59.536h-11.262v278.493l-56.123 96.765c0 0 22.882 13.283 25.566 14.419 2.674 1.154 13.014 3.906 5.976-5.336-7.112-9.27-13.094-17.968-6.195-32.438 0 0 2.64-8.187 11.653-2.846 7.856 4.72 10.541 7.856 12.587 22.336 0 0 0.005 6.358 3.976 4.842 0 0 1.886 1.166 1.886-5.677 0-6.902-0.181-21.998 5.234-30.206l3.333-4.070c0 0 4.69-7.723-3.525-3.694 0 0-14.44 11.902-19.984 8.227 0 0-7.701-5.026-0.656-12.102 0 0 7.867-12.906 28.856-19.632 0 0 28.064-11.766 28.76 17.133 0 0-8.256 2.502-2.19 15.291 0 0-11.104 25.69-26.722 2.984 0 0-12.114 22.888 1.355 24.050 0 0 8.587 0.304 20.816-7.216 0 0-11.25 27.51-3.525 43.462 0 0 18.974-3.472 19.982-37.426 0 0 22.016 39.483 27.558-0.21h-0.528zM144.578 349.974c0 3.904 3.214 7.12 7.142 7.12 3.925 0 7.123-3.216 7.123-7.12 0-3.944-3.197-7.125-7.123-7.125-3.928 0-7.142 3.181-7.142 7.125zM211.090 363.101c0 3.918 3.216 7.075 7.131 7.075 3.936 0 7.125-3.16 7.125-7.075 0-3.992-3.19-7.152-7.125-7.152-3.915 0-7.131 3.16-7.131 7.152zM285.942 362.816c0 3.944 3.16 7.128 7.128 7.128 3.899 0 7.086-3.184 7.086-7.128 0-3.939-3.187-7.136-7.086-7.136-3.971 0-7.128 3.197-7.128 7.136zM352.432 350.206c0 3.925 3.19 7.162 7.115 7.162 3.952 0 7.134-3.238 7.134-7.162s-3.178-7.144-7.134-7.144c-3.925 0-7.115 3.218-7.115 7.144zM298.68 419.112c0 0-1.654-3.875-1.976-5.87-0.378-1.998-4.043 0.531-4.043 0.531l1.28 3.779 2.589 2.685 2.149-1.126zM130.672 402.717l-2.432-0.968-1.504 0.584c1.792 2.698 3.936 0.384 3.936 0.384zM81.707 295.563c0-8.72 7.112-15.875 15.835-15.875 8.768 0 15.85 7.158 15.85 15.875 0 8.765-7.082 15.848-15.85 15.848-8.722 0-15.835-7.083-15.835-15.848zM74.573 295.542c0 12.696 10.293 23.008 22.968 23.008 12.691 0 22.984-10.312 22.984-23.008s-10.293-22.944-22.984-22.944c-12.674 0.002-22.968 10.248-22.968 22.944zM81.707 25.995c0-8.738 7.112-15.842 15.835-15.842 8.768 0 15.85 7.104 15.85 15.842 0 8.771-7.082 15.853-15.85 15.853-8.722 0-15.835-7.082-15.835-15.853zM74.573 25.995c0 12.728 10.293 23.005 22.968 23.005 12.691 0 22.984-10.277 22.984-23.005 0-12.672-10.293-22.944-22.984-22.944-12.674 0.002-22.968 10.272-22.968 22.944zM92.464 76.48h9.922v-29.765h-9.922v29.765zM92.464 145.944h9.922v-39.688h-9.922v39.688zM92.464 215.406h9.922v-39.694h-9.922v39.693zM92.464 284.864h9.922v-39.694h-9.922v39.694zM102.386 300.12h32.434v-10.666h-32.434v10.666zM398.616 295.563c0-8.72 7.075-15.875 15.842-15.875 8.771 0 15.882 7.158 15.882 15.875 0 8.765-7.112 15.848-15.882 15.848-8.765 0-15.842-7.083-15.842-15.848zM391.466 295.542c0 12.696 10.291 23.008 22.995 23.008s22.976-10.312 22.976-23.008-10.274-22.944-22.976-22.944-22.995 10.248-22.995 22.944zM398.616 25.995c0-8.738 7.075-15.842 15.842-15.842 8.771 0 15.882 7.104 15.882 15.842 0 8.771-7.112 15.853-15.882 15.853-8.765 0-15.842-7.082-15.842-15.853zM391.466 25.995c0 12.728 10.291 23.005 22.995 23.005s22.976-10.277 22.976-23.005c0-12.672-10.274-22.944-22.976-22.944s-22.995 10.272-22.995 22.944zM409.995 76.48h9.923v-29.765h-9.923v29.765zM409.995 145.944h9.923v-39.688h-9.923v39.688zM409.995 215.406h9.923v-39.694h-9.923v39.693zM409.995 284.864h9.923v-39.694h-9.923v39.694zM377.558 300.12h32.438v-10.666h-32.438v10.666zM429 205.666h-29.096c-5.882 0-10.666 4.784-10.666 10.666v38c0 5.88 4.784 10.666 10.666 10.666h29.096c5.88 0 10.666-4.786 10.666-10.666v-38c0-5.882-4.786-10.666-10.666-10.666zM429 216.334v0 0 0 0zM399.904 254.333v-38h29.080l0.016 38h-29.096zM429 131.666h-29.096c-5.882 0-10.666 4.784-10.666 10.666v38c0 5.88 4.784 10.666 10.666 10.666h29.096c5.88 0 10.666-4.786 10.666-10.666v-38c0-5.882-4.786-10.666-10.666-10.666zM429 142.334v0 0 0 0zM399.904 180.334v-38h29.080l0.016 38h-29.096zM429 56.738h-29.096c-5.882 0-10.666 4.784-10.666 10.666v38c0 5.88 4.784 10.666 10.666 10.666h29.096c5.88 0 10.666-4.786 10.666-10.666v-38c0-5.882-4.786-10.666-10.666-10.666zM429 67.406v0 0 0 0zM399.904 105.406v-38h29.080l0.016 38h-29.096zM112.096 205.666h-29.096c-5.88 0-10.666 4.784-10.666 10.666v38c0 5.88 4.787 10.666 10.666 10.666h29.096c5.882 0 10.666-4.786 10.666-10.666v-38c0-5.882-4.784-10.666-10.666-10.666zM112.096 216.334v0 0 0 0zM83 254.333v-38h29.080l0.016 38h-29.096zM112.096 131.666h-29.096c-5.88 0-10.666 4.784-10.666 10.666v38c0 5.88 4.787 10.666 10.666 10.666h29.096c5.882 0 10.666-4.786 10.666-10.666v-38c0-5.882-4.784-10.666-10.666-10.666zM112.096 142.334v0 0 0 0zM83 180.334v-38h29.080l0.016 38h-29.096zM112.096 56.738h-29.096c-5.88 0-10.666 4.784-10.666 10.666v38c0 5.88 4.787 10.666 10.666 10.666h29.096c5.882 0 10.666-4.786 10.666-10.666v-38c0-5.882-4.784-10.666-10.666-10.666zM112.096 67.406v0 0 0 0zM83 105.406v-38h29.080l0.016 38h-29.096z" />
<glyph unicode="&#xe601;" d="M458.229 272.944v0.099l-0.053-0.099h-404.352l-14.597 26.68 87.032 135.92 14.598 7.986h230.286l14.6-7.986 87.038-135.92-14.55-26.68zM85.504 307.611h340.992l-64.838 101.254h-211.322l-64.832-101.254zM53.824 39.136h404.354v-34.666h-404.354v34.666zM53.824 127.022h404.354v-34.666h-404.354v34.666zM53.824 214.864h404.354v-34.666h-404.354v34.666z" />
<glyph unicode="&#xe602;" d="M255.978 110.178l-186.75 186.776 27.248 27.243 159.504-159.528 159.542 159.53 27.245-27.248z" />
<glyph unicode="&#xe603;" d="M189.696 31.558l-39.891 39.89 152.555 152.552-152.554 152.552 39.891 39.893 192.446-192.445z" />
<glyph unicode="&#xe604;" d="M342.024 24.046l18.576 18.565-181.341 181.394 181.341 181.381-18.576 18.571-199.906-199.952z" />
<glyph unicode="&#xe605;" d="M256.002 87.317c-78.947 0-143.176 64.23-143.176 143.173h44.469c0-54.426 44.28-98.707 98.709-98.707 54.424 0 98.704 44.278 98.704 98.707h44.469c-0.005-78.944-64.232-143.173-143.176-143.173zM233.768 109.552h44.47v-85.64h-44.469v85.64zM256.002 424.088c-38.611 0-69.899-31.312-69.899-69.875v-122.592h0.054c0.155-38.435 31.352-69.565 69.845-69.565 38.502 0 69.702 31.13 69.851 69.565h0.050v122.592c0 38.563-31.298 69.875-69.901 69.875z" />
<glyph unicode="&#xe606;" d="M432.026 103.798c0-0.123-0.099-0.221-0.221-0.221h-71.082c-0.123 0-0.221-0.099-0.221-0.221v-53.928c0-0.123-0.099-0.221-0.221-0.221h-280.082c-0.123 0-0.222 0.099-0.222 0.221v191.365c0 0.123 0.102 0.221 0.222 0.221h280.082c0.123 0 0.221-0.101 0.221-0.221v-59.182c0-0.123 0.099-0.221 0.221-0.221h71.082c0.123 0 0.221-0.099 0.221-0.221v-77.37zM198.176 398.794h44.469v-206.872h-44.469v206.872zM105.645 421.029h233.437v-44.469h-233.438v44.469z" />
<glyph unicode="&#xe607;" d="M60.056 8h391.89v297.334h-391.89v-297.334zM92.056 96.445h57.278v-56.445h-57.278v56.445zM336 128.445h-66.666v59.109h66.666v-59.11zM362.666 187.555h57.277v-59.109h-57.278v59.11zM269.334 96.445h66.666v-56.445h-66.666v56.445zM242.667 40h-66.667v56.445h66.666v-56.445zM269.334 214.221v59.112h66.666v-59.112h-66.666zM242.667 214.221h-66.667v59.112h66.666v-59.112zM242.667 187.555v-59.109h-66.667v59.11h66.666zM149.333 128.445h-57.278v59.109h57.278v-59.11zM362.666 40v56.445h57.277v-56.445h-57.278zM419.944 214.221h-57.277v59.112h57.278v-59.112zM149.333 273.333v-59.112h-57.278v59.112h57.278zM162.667 320c8.834 0 16 7.166 16 16v88c0 8.834-7.166 16-16 16s-16-7.166-16-16v-88c0-8.834 7.166-16 16-16zM349.334 320c8.834 0 16 7.166 16 16v88c0 8.834-7.166 16-16 16s-16-7.166-16-16v-88c0-8.834 7.166-16 16-16zM60.056 370.666h71.056v-32h-71.056v32zM380.888 370.666h71.056v-32h-71.056v32zM194.221 370.666h123.558v-32h-123.558v32z" />
<glyph unicode="&#xe608;" d="M432.043 341.571c0 0.122-0.099 0.221-0.221 0.221h-71.13c-0.123 0-0.221 0.101-0.221 0.221v56.552c0 0.123-0.099 0.221-0.221 0.221h-280.067c-0.123 0-0.222-0.101-0.222-0.221v-191.368c0-0.123 0.102-0.221 0.222-0.221h280.067c0.123 0 0.221 0.099 0.221 0.221v56.552c0 0.122 0.099 0.221 0.221 0.221h71.13c0.123 0 0.221 0.101 0.221 0.221v77.378zM200.894 217.677l38.975-21.406-86.647-157.761-38.975 21.406 86.647 157.761zM239.881 217.695l86.674-157.759-38.973-21.412-86.674 157.759 38.973 21.412z" />
<glyph unicode="&#xe609;" d="M78.965 428.286l381.315-381.315-27.245-27.245-381.315 381.315 27.245 27.245zM433.036 428.288l27.245-27.245-381.323-381.323-27.245 27.245 381.323 381.323z" />
<glyph unicode="&#xe60a;" d="M407.765 10.72h-303.534v370.166h106.486v-39.166h-67.317v-291.834h225.2v291.834h-67.31v39.166h106.475zM184.44 215.387h143.133v-39.168h-143.133v39.168zM184.44 123.339h143.133v-39.168h-143.133v39.168zM329.709 309.394h-147.376v127.885h147.374v-127.885zM221.501 348.563h69.040v49.552h-69.040v-49.552z" />
<glyph unicode="&#xe60b;" d="M466.454 224c0-116.221-94.25-210.435-210.477-210.435-116.179 0-210.429 94.214-210.429 210.435 0 116.243 94.25 210.435 210.429 210.435 116.227 0 210.477-94.192 210.477-210.435z" />
<glyph unicode="&#xe60c;" d="M256.005 437.24c-117.76 0-213.24-95.464-213.24-213.197 0-117.818 95.48-213.28 213.24-213.28 117.75 0 213.23 95.464 213.23 213.28 0 117.734-95.48 213.197-213.23 213.197zM332.504 128.469h-25.87v93.034h-101.224v-93.037h-25.891v206.067h25.891v-90.752h101.224v90.752h25.87v-206.064z" />
<glyph unicode="&#xe60d;" d="M305.624 271.882c0 12.339-3.875 22.16-11.635 29.488-7.75 7.315-18.947 10.971-33.574 10.971h-45.875v-81.568h43.918c15.498 0 27.229 3.762 35.208 11.291 7.978 7.542 11.957 17.48 11.957 29.818zM256 437.219c-117.77 0-213.24-95.421-213.24-213.155 0-117.776 95.469-213.282 213.24-213.282 117.728 0 213.24 95.507 213.24 213.282 0 117.734-95.512 213.155-213.24 213.155zM303.99 128.558l-53.406 84.192h-36.042v-84.192h-25.88v206.062h71.754c23.136 0 40.885-5.568 53.234-16.712 12.334-11.134 18.51-25.221 18.51-42.262 0-17.032-4.541-30.79-13.606-41.272-9.067-10.483-22.432-17.267-40.125-20.315l58.952-85.504h-33.392z" />
<glyph unicode="&#xe60e;" d="M256 437.24c-117.75 0-213.24-95.507-213.24-213.28 0-117.776 95.49-213.197 213.24-213.197 117.76 0 213.24 95.421 213.24 213.197 0 117.771-95.48 213.28-213.24 213.28zM323.51 312.267h-100.909v-69.125h94.995v-21.947h-94.995v-70.104h100.912v-22.611h-126.803v206.064h126.803v-22.277z" />
<glyph unicode="&#xe60f;" d="M460.286 20.45h-408.57v407.099h154.296v-47.099h-107.2v-312.901h314.376v90.992h47.099zM460.286 256.728h-47.099v123.723h-110.752v47.098h157.851zM417.639 419.866l33.301-33.301-178.291-178.291-33.302 33.302 178.291 178.291z" />
<glyph unicode="&#xe610;" d="M334.952 224.024l6.613 63.398h-57.325v31.528c0 9.486 1.496 16.107 4.496 19.867 2.944 3.757 9.909 5.64 20.659 5.64h31.914v63.445h-50.712c-29.344 0-50.413-6.966-63.101-20.894-12.819-13.885-19.171-34.435-19.171-61.648v-37.939h-37.894v-63.398h37.891v-183.926h75.917v183.925h50.712z" />
<glyph unicode="&#xe611;" d="M206.016 424.923h105.557l-32.64-19.053h-32.584c11.44-7.262 20.288-17.387 26.568-30.416 6.277-13.072 9.389-26.661 9.389-40.842 0-11.918-1.827-22.514-5.555-31.738-3.666-9.277-8.158-16.709-13.488-22.349-5.344-5.635-10.635-10.803-15.982-15.595-5.258-4.738-9.781-9.656-13.544-14.694-3.672-5.088-5.518-10.552-5.518-16.322 0-4.181 1.381-8.286 3.989-12.302 2.645-4.016 6.147-7.906 10.379-11.618 4.267-3.72 8.96-7.568 14.141-11.579 5.12-4.056 10.301-8.502 15.464-13.416 5.123-4.912 9.87-10.208 14.101-15.938 4.264-5.723 7.731-12.558 10.376-20.502 2.685-7.995 4.024-16.536 4.024-25.72 0-25.765-11.25-48.448-33.851-68.147-24.477-21.062-58.272-31.613-101.418-31.613-9.486 0-19.099 0.808-28.838 2.432-9.725 1.618-19.6 4.272-29.475 8.077-9.947 3.76-18.63 8.416-26.232 14.010-7.525 5.558-13.712 12.733-18.573 21.49-4.843 8.803-7.23 18.541-7.23 29.349 0 9.781 3 20.683 8.922 32.6 5.178 10.296 12.872 19.181 23.198 26.656 10.264 7.52 21.963 13.245 35.042 17.176 12.987 3.933 25.504 6.837 37.429 8.714 11.867 1.837 23.958 2.906 36.176 3.245-10.302 13.334-15.424 25.339-15.424 35.978 0 1.923 0.131 3.798 0.464 5.683 0.355 1.834 0.728 3.416 1.214 4.698 0.501 1.28 1.157 2.989 1.954 5.214 0.819 2.131 1.322 3.886 1.678 5.168-6.408-0.766-12.056-1.197-16.936-1.197-23.958 0-44.507 7.864-61.685 23.672-17.176 15.765-25.709 35.589-25.709 59.427 0 22.51 7.638 42.683 22.933 60.453 15.29 17.813 34.126 29.221 56.517 34.216 15.128 3.16 30.166 4.781 45.162 4.781zM266.637 102.072c0 3.37-0.389 6.618-1.118 9.781-0.672 3.163-1.456 6.026-2.259 8.672-0.818 2.651-2.235 5.426-4.226 8.334-2.016 2.906-3.726 5.339-5.123 7.349-1.381 2.048-3.466 4.394-6.374 7.13-2.906 2.738-5.123 4.786-6.632 6.152-1.565 1.37-4.099 3.421-7.733 6.158-3.576 2.776-6.107 4.613-7.504 5.594-1.322 0.944-4.024 2.776-7.954 5.51-3.93 2.776-6.408 4.442-7.339 5.088-2.776 0.296-6.8 0.469-12.090 0.469-8.685 0-17.272-0.558-25.6-1.666-8.365-1.115-17.083-3.163-26.101-6.026-9.018-2.901-16.877-6.618-23.662-11.152-6.76-4.486-12.312-10.504-16.672-18.072-4.36-7.558-6.483-16.187-6.483-25.842 0-10.978 2.848-20.72 8.531-29.349 5.736-8.589 13.248-15.382 22.488-20.296 9.256-4.912 18.91-8.541 29.12-10.974 10.133-2.394 20.344-3.635 30.645-3.635 9.482 0 18.573 0.984 27.162 3.032 8.626 2.010 16.714 5.13 24.31 9.4 7.528 4.277 13.547 10.166 17.981 17.77 4.413 7.563 6.632 16.402 6.632 26.574zM237.63 310.214c0 9.656-1.286 19.952-3.93 30.808-2.704 10.848-6.501 21.36-11.365 31.486-4.954 10.166-11.702 18.541-20.288 25.12-8.648 6.624-18.258 9.952-28.838 9.952-14.998 0-26.624-5.6-34.821-16.699-8.216-11.066-12.314-24.4-12.314-39.824 0-7.606 0.894-15.547 2.776-23.923 1.843-8.376 4.714-16.75 8.589-25.125 3.891-8.376 8.384-15.89 13.541-22.6 5.125-6.661 11.368-12.088 18.798-16.277 7.398-4.186 15.221-6.28 23.422-6.28 15.63 0 26.958 4.87 33.925 14.614 7.006 9.744 10.506 22.645 10.506 38.749zM456.928 363.104v-30.89h-61.818v-61.858h-30.89v61.858h-61.866v30.891h61.866v61.818h30.89v-61.818h61.818z" />
<glyph unicode="&#xe612;" d="M135.563 345.379h240.906v-34.667h-240.906v34.666zM135.563 241.352h240.906v-34.667h-240.906v34.666zM135.563 137.317h240.906v-34.666h-240.906v34.666zM475.52 4.469h-439.040v439.062h439.040v-439.062zM71.147 39.136h369.707v369.728h-369.707v-369.728z" />
<glyph unicode="&#xe613;" d="M45.813 394.099h420.376v-50.954h-420.376v50.954zM45.813 249.466h420.376v-50.954h-420.376v50.954zM45.813 104.856h420.376v-50.952h-420.376v50.952z" />
<glyph unicode="&#xe614;" d="M256.010 4.469c-121.053 0-219.536 98.474-219.536 219.512 0 121.058 98.483 219.549 219.536 219.549 121.043 0 219.514-98.49 219.514-219.549 0-121.038-98.472-219.512-219.514-219.512zM256.010 408.864c-101.939 0-184.869-82.939-184.869-184.883 0-101.925 82.934-184.846 184.869-184.846 101.928 0 184.848 82.923 184.848 184.846 0 101.947-82.92 184.882-184.848 184.882zM239.52 257.846h34.667v-135.992h-34.666v135.992zM239.52 339.573h34.667v-35.659h-34.666v35.659z" />
<glyph unicode="&#xe615;" d="M344.322 226.621h35.331v-70.659h-35.331v70.659zM132.344 226.621h35.331v-70.659h-35.331v70.659zM256 439.894l-222.864-104.744v-325.187h445.726v325.187l-222.862 104.744zM443.531 45.288h-169.867v57.678h-35.331v-57.678h-169.867v267.43l187.534 88.142 187.534-88.142v-267.43z" />
<glyph unicode="&#xe616;" d="M256 8.672c-16.683 0-30.208 13.522-30.208 30.208v212.877c0 16.683 13.525 30.208 30.208 30.208s30.208-13.526 30.208-30.208v-212.877c0-16.685-13.526-30.208-30.208-30.208zM256 338.32c-16.683 0-30.208 13.526-30.208 30.208v40.592c0 16.683 13.525 30.208 30.208 30.208s30.208-13.525 30.208-30.208v-40.592c0-16.686-13.526-30.208-30.208-30.208z" />
<glyph unicode="&#xe617;" d="M163.968 354.411c-0.208 11.448-4.192 20.933-11.928 28.454-7.728 7.48-17.974 11.277-30.755 11.277-12.819 0-23.234-3.798-31.261-11.277-8.126-7.52-12.094-17.006-12.094-28.454 0-11.28 3.874-20.72 11.698-28.28 7.901-7.65 18.072-11.448 30.629-11.448h0.355c13.022 0 23.496 3.798 31.427 11.448 7.96 7.563 11.928 17 11.928 28.28zM82.536 283.578h76.475v-229.72h-76.475v229.72zM357.624 53.858h76.442v131.755c0 33.962-8.088 59.683-24.182 77.115-16.115 17.426-37.389 26.142-63.885 26.142-29.974 0-53.056-12.901-69.152-38.744h0.666v33.453h-76.51c0.688-14.568 0.688-91.125 0-229.72h76.51v128.422c0 8.416 0.728 14.568 2.277 18.541 3.334 7.733 8.291 14.312 14.901 19.694 6.635 5.387 14.792 8.12 24.486 8.12 25.63 0 38.448-17.301 38.448-51.947v-122.829z" />
<glyph unicode="&#xe618;" d="M285.522 224c0-16.28-13.197-29.478-29.478-29.478s-29.477 13.197-29.477 29.478c0 16.28 13.197 29.477 29.477 29.477s29.478-13.197 29.478-29.477zM256.053 181.696c-23.334 0-42.315 18.978-42.315 42.304 0 23.328 18.984 42.304 42.315 42.304 23.322 0 42.298-18.978 42.298-42.304s-18.976-42.304-42.298-42.304zM256.053 240.643c-9.184 0-16.654-7.466-16.654-16.643s7.47-16.642 16.654-16.642c9.173 0 16.637 7.466 16.637 16.642s-7.464 16.642-16.637 16.642zM352.656 143.080l-19.666 16.48c15.112 18.043 23.435 40.928 23.435 64.44 0 23.514-8.322 46.398-23.435 64.435l19.666 16.483c18.978-22.648 29.43-51.384 29.43-80.915s-10.45-58.272-29.43-80.922zM159.341 143.086c-18.976 22.654-29.427 51.389-29.427 80.915s10.451 58.261 29.429 80.915l19.669-16.48c-15.114-18.043-23.438-40.926-23.438-64.435s8.322-46.392 23.438-64.435l-19.672-16.48zM84.008 99.128c-26.654 36.661-40.739 79.84-40.739 124.872 0 45.024 14.088 88.202 40.739 124.866l20.754-15.088c-23.442-32.25-35.832-70.211-35.832-109.779 0-39.574 12.389-77.536 35.834-109.784l-20.757-15.088zM427.99 99.125l-20.75 15.094c23.44 32.232 35.832 70.192 35.832 109.781 0 39.578-12.389 77.541-35.834 109.781l20.755 15.090c26.651-36.656 40.738-79.834 40.738-124.874 0-45.046-14.088-88.224-40.741-124.872z" />
<glyph unicode="&#xe619;" d="M231.667 4.466c-121.058 0-219.547 98.49-219.547 219.549 0 121.042 98.488 219.518 219.547 219.518 121.040 0 219.51-98.475 219.51-219.518h-34.666c0 101.928-82.923 184.85-184.843 184.85-101.944 0-184.88-82.925-184.88-184.85 0-101.944 82.939-184.882 184.88-184.882 76.584 0 144.155 46.058 172.147 117.346l32.267-12.672c-15.944-40.611-43.387-75.274-79.352-100.25-36.832-25.574-80.077-39.091-125.061-39.091zM336.95 198.827h-130.47v147.89h34.667v-113.224h95.803zM433.837 187.978l-60.92 60.947 24.514 24.507 36.416-36.427 36.442 36.432 24.512-24.517z" />
<glyph unicode="&#xe61a;" d="M256.019-0.789c-123.96 0-224.808 100.832-224.808 224.774 0 123.957 100.848 224.805 224.808 224.805 123.942 0 224.774-100.848 224.774-224.805 0-123.938-100.834-224.774-224.774-224.774zM256.019 429.856c-113.52 0-205.875-92.352-205.875-205.872 0-113.498 92.355-205.84 205.875-205.84 113.499 0 205.834 92.341 205.834 205.84 0 113.517-92.339 205.872-205.834 205.872zM233.202 116.744l-13.389 13.392 93.858 93.848-93.858 93.87 13.389 13.387 107.245-107.256z" />
<glyph unicode="&#xe61b;" d="M256.010 6.96l-125.125 125.128 24.882 24.885 100.248-100.248 100.28 100.248 24.88-24.885zM238.418 335.674h35.192v-303.832h-35.192v303.832zM423.312 207.75h-35.192v190.81h-264.24v-190.81h-35.192v226.002h334.624z" />
<glyph unicode="&#xe61c;" d="M163.394 6.866h-124.522v138.72h35.189v-103.528h89.333zM74.061 316.621h-35.19v124.51h124.523v-35.189h-89.334zM473.128 316.621h-35.19v89.32h-103.549v35.189h138.738zM473.128 6.866h-138.738v35.192h103.549v103.528h35.19zM68.907 435.978l93.478-93.478-24.882-24.882-93.478 93.478 24.882 24.882zM374.479 130.399l93.512-93.486-24.879-24.886-93.512 93.486 24.879 24.886zM443.095 435.986l24.88-24.888-93.507-93.481-24.88 24.888 93.507 93.481zM137.516 130.392l24.886-24.879-93.471-93.498-24.886 24.879 93.471 93.498z" />
<glyph unicode="&#xe61d;" d="M163.384 6.866h-124.512v138.72h35.19v-103.528h89.323zM74.061 316.621h-35.19v124.51h124.512v-35.189h-89.323zM473.128 316.621h-35.19v89.32h-103.563v35.189h138.752zM473.128 6.866h-138.752v35.192h103.563v103.528h35.19zM345.661 134.334h-179.32v179.334h179.32v-179.334zM201.53 169.526h108.941v108.95h-108.942v-108.95z" />
<glyph unicode="&#xe61e;" d="M162.891 20.195c-2.267 0-4.552 0.438-6.728 1.341-6.576 2.723-10.862 9.139-10.862 16.256v372.416c0 7.118 4.286 13.534 10.862 16.256 6.571 2.722 14.142 1.216 19.173-3.816l186.21-186.214c3.298-3.298 5.152-7.776 5.152-12.442s-1.853-9.144-5.152-12.442l-186.21-186.202c-3.365-3.363-7.864-5.152-12.446-5.152zM180.49 367.728v-287.459l143.728 143.722-143.728 143.736z" />
<glyph unicode="&#xe61f;" d="M269.219 28.205c-4.072 0-8.077 1.592-11.072 4.587l-180.125 180.16c-6.112 6.115-6.112 16.024 0 22.136l180.125 180.123c4.478 4.474 11.208 5.818 17.062 3.392 5.848-2.424 9.661-8.131 9.661-14.462v-360.28c0-6.33-3.816-12.040-9.664-14.462-1.933-0.803-3.971-1.195-5.986-1.195zM111.227 224.016l142.334-142.362v284.696l-142.333-142.333zM337.906 171.853l-25.995 17.448c6.925 10.315 10.584 22.317 10.584 34.718 0 12.374-3.659 24.365-10.584 34.68l25.995 17.448c10.397-15.49 15.896-33.517 15.896-52.128 0-18.635-5.498-36.672-15.896-52.166zM376.651 81.053l-21.464 22.792c33.579 31.622 52.067 74.302 52.067 120.173 0 45.837-18.496 88.52-52.072 120.182l21.474 22.779c39.923-37.64 61.906-88.408 61.906-142.96 0-54.592-21.986-105.365-61.912-142.966z" />
<glyph unicode="&#xe620;" d="M256.019-0.789c-123.96 0-224.808 100.837-224.808 224.79 0 123.95 100.848 224.79 224.808 224.79 123.942 0 224.774-100.84 224.774-224.79s-100.834-224.79-224.774-224.79zM256.019 429.856c-113.52 0-205.875-92.346-205.875-205.856s92.355-205.856 205.875-205.856c113.499 0 205.834 92.346 205.834 205.856s-92.339 205.856-205.834 205.856zM238.432 162.304c-23.181 0-44.978 9.026-61.37 25.416-33.838 33.837-33.838 88.896 0 122.733 16.389 16.384 38.176 25.405 61.35 25.405 23.184 0 44.981-9.029 61.376-25.424 16.389-16.389 25.416-38.182 25.416-61.358s-9.026-44.968-25.416-61.358c-16.382-16.387-38.173-25.416-61.355-25.416zM238.411 316.925c-18.114 0-35.149-7.053-47.963-19.858-26.453-26.453-26.453-69.501 0-95.954 12.816-12.816 29.856-19.872 47.984-19.872 18.123 0 35.158 7.056 47.962 19.87 12.818 12.816 19.875 29.851 19.875 47.971s-7.056 35.154-19.875 47.971c-12.816 12.816-29.858 19.875-47.984 19.875zM299.787 201.087l61.524-61.516-13.389-13.392-61.524 61.516 13.389 13.392z" />
<glyph unicode="&#xe621;" d="M215.403 85.704c-47.794 0-92.722 18.611-126.512 52.406-33.797 33.792-52.413 78.722-52.413 126.517s18.616 92.726 52.416 126.517c33.773 33.781 78.683 52.387 126.451 52.387 47.795 0 92.733-18.618 126.544-52.43 69.747-69.752 69.747-183.242 0-252.994-33.768-33.792-78.69-52.402-126.486-52.402zM215.344 408.864c-38.51 0-74.712-15-101.942-42.232-27.251-27.245-42.261-63.469-42.261-102.005 0-38.534 15.008-74.76 42.261-102.005 27.242-27.248 63.467-42.253 102-42.253 38.531 0 74.744 15.002 101.968 42.248 56.238 56.238 56.238 147.738 0.005 203.974-27.262 27.262-63.496 42.274-102.032 42.274zM341.894 162.624l128.56-128.56-24.511-24.511-128.56 128.56 24.511 24.511z" />
<glyph unicode="&#xe622;" d="M348.368 107.918l-22.142 22.136 98.966 98.995-98.966 98.992 22.142 22.136 121.096-121.128zM149.915 244.702h297.413v-31.307h-297.413v31.306zM275.998 59.637h-226.978v328.726h226.978v-31.306h-195.672v-266.112h195.672z" />
<glyph unicode="&#xe623;" d="M256.317 10.163l-186.466 140.008 24.434 32.544 147.288-110.594 170.123 343.765 36.472-18.050z" />
<glyph unicode="&#xe624;" d="M256.005-1.795c-124.504 0-225.798 101.291-225.798 225.795s101.293 225.792 225.798 225.792c124.501 0 225.786-101.291 225.786-225.792s-101.288-225.794-225.786-225.794zM256.005 418.651c-107.334 0-194.656-87.32-194.656-194.651s87.322-194.648 194.656-194.648c107.328 0 194.645 87.317 194.645 194.648s-87.317 194.65-194.645 194.65zM359.594 141.784l-120.594 70.696v117.923h31.147v-100.080l105.197-61.67z" />
<glyph unicode="&#xe625;" d="M216.53 412.406h53.694v-95.144h89.33v-59.128h-89.331v-96.683c0-22.259 1.154-36.272 3.466-42.206 2.086-6.029 6.37-10.942 12.723-14.659 8.216-5.080 17.774-7.646 28.709-7.646 19.152 0 38.118 6.235 56.914 18.624v-59.336c-16.654-7.861-31.224-13.166-43.666-15.942-12.6-3.12-26.733-4.699-42.421-4.699-17.176 0-32.418 2.221-45.624 6.664-12.781 4.056-24.054 10.208-33.834 18.416-9.538 8.283-15.984 16.872-19.392 25.72-3.632 8.84-5.44 22.002-5.44 39.512v132.234h-41.698v53.235c14.925 4.912 27.554 11.746 38.026 20.589 10.47 8.974 18.891 19.781 25.298 32.384 6.352 12.773 10.805 28.794 13.245 48.061z" />
<glyph unicode="&#xe626;" d="M446.504 60.894h-381.008c-18.627 0-33.768 15.142-33.768 33.768v258.678c0 18.626 15.142 33.77 33.768 33.77h381.008c18.624 0 33.765-15.144 33.765-33.77v-258.678c0.002-18.627-15.139-33.768-33.765-33.768zM65.496 373.603c-11.171 0-20.261-9.088-20.261-20.264v-258.678c0-11.173 9.088-20.264 20.261-20.264h381.008c11.171 0 20.262 9.088 20.262 20.264v258.678c0 11.173-9.088 20.264-20.262 20.264h-381.008zM256 187.058c-20.352 0-36.934 16.568-36.934 36.947 0 20.365 16.582 36.92 36.934 36.92 20.365 0 36.933-16.554 36.933-36.92 0-20.378-16.568-36.947-36.934-36.947zM256 246.312c-12.286 0-22.291-10.011-22.291-22.304 0-12.306 10.006-22.306 22.291-22.306 12.298 0 22.296 10 22.296 22.306 0 12.291-9.998 22.304-22.296 22.304zM112.421 138.28c-14.184 26.669-21.389 55.534-21.389 85.726 0 29.784 7.392 59.424 21.389 85.726l12.92-6.858c-13.056-24.56-19.672-51.075-19.672-78.867s6.621-54.306 19.672-78.84l-12.92-6.885zM153.528 160.128c-10.418 19.6-15.941 41.683-15.941 63.88 0 22.214 5.52 44.293 15.941 63.882l12.928-6.861c-9.312-17.504-14.232-37.198-14.232-57.022 0-19.811 4.92-39.53 14.232-57.011l-12.928-6.87zM194.050 181.654c-7.248 13.611-10.928 27.84-10.928 42.352 0 14.47 3.68 28.718 10.928 42.355l12.925-6.885c-6.112-11.478-9.214-23.414-9.214-35.47 0-12.086 3.101-24.008 9.208-35.466l-12.92-6.885zM399.579 138.28l-12.92 6.885c13.056 24.534 19.675 51.048 19.675 78.84s-6.616 54.306-19.675 78.867l12.92 6.858c14.002-26.301 21.389-55.941 21.389-85.726 0-30.19-7.19-59.056-21.389-85.726zM358.459 160.128l-12.914 6.866c9.312 17.483 14.232 37.2 14.232 57.011 0 19.827-4.92 39.518-14.232 57.021l12.914 6.862c10.432-19.576 15.952-41.659 15.952-63.882 0-22.195-5.52-44.307-15.952-63.877zM317.947 181.654l-12.92 6.885c6.123 11.459 9.205 23.384 9.205 35.466 0 12.056-3.082 23.994-9.211 35.469l12.925 6.886c7.245-13.64 10.93-27.886 10.93-42.355 0-14.51-3.685-28.738-10.93-42.352z" />
<glyph unicode="&#xe627;" d="M120.85 276.637l30.126-88.536 30.291 88.536h13.891l-37.322-105.274h-13.726l-37.15 105.274h13.891zM250.896 278.486c13.61 0 24.624-4.669 33.056-13.984 8.418-9.314 12.635-22.872 12.635-40.666 0-17.792-4.187-31.304-12.558-40.507-8.365-9.208-19.411-13.81-33.136-13.81s-24.746 4.67-33.056 13.981c-8.317 9.31-12.472 22.792-12.472 40.413 0 17.744 4.155 31.274 12.472 40.589 8.312 9.312 19.334 13.984 33.059 13.984zM250.896 266.6c-9.821 0-17.576-3.68-23.269-11.056-5.685-7.36-8.534-17.965-8.534-31.789 0-13.837 2.848-24.339 8.534-31.474 5.694-7.136 13.448-10.709 23.269-10.709 9.814 0 17.595 3.574 23.347 10.709 5.744 7.136 8.618 17.635 8.618 31.474 0 13.824-2.875 24.429-8.618 31.79-5.752 7.376-13.534 11.056-23.346 11.056zM352.654 276.637c15.846 0 28.538-4.776 38.080-14.312 9.536-9.538 14.306-22.32 14.306-38.32 0-16.016-4.771-28.792-14.307-38.334-9.541-9.538-22.235-14.31-38.080-14.31h-30.957v105.274h30.957zM334.912 182.92h17.741c11.723 0 21.034 3.861 27.95 11.616s10.382 17.611 10.382 29.549c0 11.939-3.49 21.726-10.459 29.376-6.978 7.637-16.267 11.462-27.872 11.462h-17.741v-82.002zM446.51 60.894h-381.022c-18.618 0-33.768 15.142-33.768 33.768v258.678c0 18.626 15.15 33.77 33.768 33.77h381.022c18.618 0 33.768-15.144 33.768-33.77v-258.678c0-18.627-15.147-33.768-33.768-33.768zM65.488 373.603c-11.171 0-20.261-9.088-20.261-20.264v-258.678c0-11.173 9.088-20.264 20.261-20.264h381.022c11.171 0 20.262 9.088 20.262 20.264v258.678c0 11.173-9.088 20.264-20.262 20.264h-381.022z" />
<glyph unicode="&#xe628;" d="M38.304 248.302h435.389v-48.605h-435.389v48.606z" />
<glyph unicode="&#xe629;" d="M473.696 248.286h-193.381v193.402h-48.606v-193.402h-193.405v-48.592h193.405v-193.382h48.606v193.381h193.381z" />
<glyph unicode="&#xe62a;" d="M256 441.888c-120.339 0-217.886-97.555-217.886-217.882 0-120.338 97.547-217.896 217.886-217.896 120.331 0 217.885 97.558 217.885 217.896-0.002 120.328-97.558 217.883-217.886 217.883zM202.912 143.576c-14.97 0-27.096 12.134-27.096 27.112 0 14.944 12.123 27.115 27.096 27.115s27.112-12.171 27.112-27.115c0-14.978-12.142-27.112-27.112-27.112zM269.832 144.277c0 51.702-42.075 93.784-93.776 93.784v36.8c71.998 0 130.563-58.584 130.563-130.582h-36.786zM338.288 144.277c0 89.466-72.776 162.243-162.232 162.243v36.808c109.744 0 199.021-89.296 199.021-199.050h-36.789z" />
<glyph unicode="&#xe62b;" d="M298.818 25.277l-98.28 198.726 98.278 198.723c1.627 3.301 5.618 4.659 8.933 3.021 3.296-1.637 4.651-5.635 3.026-8.938l-95.363-192.803 95.363-192.818c1.624-3.301 0.272-7.301-3.026-8.938-0.947-0.469-1.962-0.693-2.952-0.693-2.456 0.002-4.822 1.368-5.978 3.723z" />
<glyph unicode="&#xe62c;" d="M207.206 21.558c-0.989 0-2.006 0.224-2.954 0.693-3.296 1.635-4.65 5.635-3.024 8.938l95.362 192.816-95.363 192.803c-1.626 3.304-0.272 7.301 3.024 8.938 3.315 1.637 7.306 0.28 8.936-3.022l98.278-198.722-98.278-198.728c-1.16-2.354-3.525-3.717-5.982-3.717z" />
<glyph unicode="&#xe62d;" d="M256.010 4.469c-121.053 0-219.536 98.474-219.536 219.512 0 121.058 98.483 219.549 219.536 219.549 121.043 0 219.514-98.49 219.514-219.549 0-121.038-98.472-219.512-219.514-219.512zM256.010 408.864c-101.939 0-184.869-82.939-184.869-184.883 0-101.925 82.934-184.846 184.869-184.846 101.928 0 184.848 82.923 184.848 184.846 0 101.947-82.92 184.882-184.848 184.882zM247.726 125.118l-106.389 87.752 22.061 26.744 77.256-63.725 101.48 146.995 28.531-19.696z" />
<glyph unicode="&#xe62e;" d="M256.010 4.469c-121.053 0-219.536 98.474-219.536 219.512 0 121.058 98.483 219.549 219.536 219.549 121.043 0 219.514-98.49 219.514-219.549 0-121.038-98.472-219.512-219.514-219.512zM256.010 408.864c-101.939 0-184.869-82.939-184.869-184.883 0-101.925 82.934-184.846 184.869-184.846 101.928 0 184.848 82.923 184.848 184.846 0 101.947-82.92 184.882-184.848 184.882zM257.822 170.702h-34.666v27.208c0 11.115 4.891 30.2 37.64 33.149 6.517 0.587 12.232 2.704 19.11 7.083 12.659 8.061 20.522 22.566 20.522 37.854 0 25.122-20.435 45.56-45.552 45.56-16.728 0-32.080-9.141-40.066-23.856l-30.47 16.536c14.056 25.898 41.085 41.986 70.536 41.986 44.232 0 80.219-35.99 80.219-80.226 0-27.022-14.014-52.731-36.57-67.096-11.55-7.354-22.552-11.283-34.622-12.368-2.96-0.269-4.872-0.616-6.077-0.923l-0.002-24.906zM223.155 141.96h34.667v-38.181h-34.666v38.182z" />
<glyph unicode="&#xe62f;" d="M475.534 224.018c0 3.466-0.11 6.917-0.269 10.36-0.038 0.79-0.088 1.573-0.134 2.36-0.163 2.829-0.378 5.65-0.646 8.459-0.062 0.637-0.115 1.274-0.178 1.906-0.736 7.056-1.816 14.048-3.221 20.954-0.024 0.12-0.050 0.238-0.075 0.357-5.912 28.806-17.555 56.158-34.568 80.662-24.976 35.966-59.64 63.408-100.25 79.352l-0.043-0.109c-24.842 9.779-51.858 15.214-80.134 15.214-11.357 0-22.517-0.867-33.416-2.538-3.565-0.547-7.101-1.182-10.608-1.899-0.056-0.010-0.112-0.019-0.166-0.029-99.952-20.494-175.363-109.128-175.363-215.048 0-105.938 75.408-194.589 175.363-215.082 0.16-0.034 0.326-0.056 0.488-0.088 3.403-0.688 6.829-1.31 10.286-1.84 10.899-1.672 22.059-2.538 33.418-2.538 3.478 0 6.936 0.11 10.389 0.272 0.738 0.034 1.474 0.080 2.211 0.125 2.914 0.166 5.816 0.387 8.712 0.664 0.555 0.053 1.11 0.099 1.666 0.158 36.654 3.808 71.573 16.69 102.082 37.875 35.966 24.976 63.408 59.64 79.352 100.25l-0.118 0.048c9.784 24.846 15.219 51.87 15.219 80.157zM439.87 243.168c0.029-0.264 0.050-0.528 0.075-0.792 0.259-2.597 0.45-5.214 0.6-7.838 0.029-0.558 0.067-1.114 0.094-1.674 0.139-2.934 0.224-5.88 0.224-8.845h0.005c0-95.504-72.798-174.322-165.816-183.896-0.182-0.019-0.363-0.034-0.541-0.053-2.68-0.269-5.382-0.466-8.088-0.616-0.512-0.029-1.024-0.062-1.536-0.086-2.95-0.142-5.918-0.226-8.901-0.226-9.554 0-18.944 0.728-28.112 2.134-1.123 0.173-2.224 0.406-3.341 0.6-1.915 0.33-3.834 0.637-5.728 1.026-84.165 17.272-147.664 91.92-147.664 181.12 0 89.186 63.499 163.824 147.667 181.090 0.118 0.024 0.238 0.040 0.357 0.064 2.88 0.584 5.781 1.109 8.709 1.558 9.168 1.406 18.558 2.133 28.112 2.133v0.003c0.011 0 0.022 0 0.034 0 95.456-0.003 174.24-72.742 183.851-165.702zM369.334 224l-162.667-96.166v192.33z" />
<glyph unicode="&#xe630;" d="M169.976 24.046l-18.576 18.565 181.341 181.394-181.341 181.381 18.576 18.571 199.906-199.952z" />
<glyph unicode="&#xe631;" d="M256.022 337.822l186.75-186.776-27.248-27.243-159.504 159.528-159.542-159.53-27.245 27.248z" />
</font>
</defs>
</svg>
